<!-- SVG Icon Template for Professional Divine Friend PWA -->
<svg width="512" height="512" viewBox="0 0 512 512" xmlns="http://www.w3.org/2000/svg">
  <defs>
    <!-- 专业渐变色彩系统 -->
    <linearGradient id="backgroundGradient" x1="0%" y1="0%" x2="100%" y2="100%">
      <stop offset="0%" style="stop-color:#F8F6F0;stop-opacity:1" />
      <stop offset="100%" style="stop-color:#E8E6DA;stop-opacity:1" />
    </linearGradient>
    
    <linearGradient id="lotusGradient" x1="0%" y1="0%" x2="100%" y2="100%">
      <stop offset="0%" style="stop-color:#D4AF37;stop-opacity:1" />
      <stop offset="50%" style="stop-color:#FFD700;stop-opacity:1" />
      <stop offset="100%" style="stop-color:#B8860B;stop-opacity:1" />
    </linearGradient>
    
    <linearGradient id="centerGradient" x1="0%" y1="0%" x2="100%" y2="100%">
      <stop offset="0%" style="stop-color:#2C1810;stop-opacity:1" />
      <stop offset="100%" style="stop-color:#5D4037;stop-opacity:1" />
    </linearGradient>
    
    <radialGradient id="glowEffect" cx="50%" cy="50%" r="50%">
      <stop offset="0%" style="stop-color:#FFD700;stop-opacity:0.6" />
      <stop offset="70%" style="stop-color:#D4AF37;stop-opacity:0.2" />
      <stop offset="100%" style="stop-color:#D4AF37;stop-opacity:0" />
    </radialGradient>
    
    <!-- 阴影效果 -->
    <filter id="dropShadow" x="-50%" y="-50%" width="200%" height="200%">
      <feDropShadow dx="0" dy="8" stdDeviation="16" flood-color="#2C1810" flood-opacity="0.15"/>
    </filter>
    
    <filter id="innerShadow" x="-50%" y="-50%" width="200%" height="200%">
      <feFlood flood-color="#D4AF37" flood-opacity="0.3"/>
      <feComposite in="SourceGraphic"/>
      <feGaussianBlur stdDeviation="3"/>
      <feOffset dx="0" dy="2"/>
      <feComposite operator="over" in="SourceGraphic"/>
    </filter>
  </defs>
  
  <!-- 背景圆形 -->
  <circle cx="256" cy="256" r="240" fill="url(#backgroundGradient)" filter="url(#dropShadow)"/>
  
  <!-- 外层光晕 -->
  <circle cx="256" cy="256" r="220" fill="url(#glowEffect)" opacity="0.6"/>
  
  <!-- 莲花外层花瓣 (8瓣) -->
  <g transform="translate(256,256)" fill="url(#lotusGradient)" filter="url(#innerShadow)">
    <!-- 主要8个花瓣 -->
    <g>
      <ellipse rx="60" ry="20" transform="rotate(0) translate(0,-140)" opacity="0.9"/>
      <ellipse rx="60" ry="20" transform="rotate(45) translate(0,-140)" opacity="0.8"/>
      <ellipse rx="60" ry="20" transform="rotate(90) translate(0,-140)" opacity="0.9"/>
      <ellipse rx="60" ry="20" transform="rotate(135) translate(0,-140)" opacity="0.8"/>
      <ellipse rx="60" ry="20" transform="rotate(180) translate(0,-140)" opacity="0.9"/>
      <ellipse rx="60" ry="20" transform="rotate(225) translate(0,-140)" opacity="0.8"/>
      <ellipse rx="60" ry="20" transform="rotate(270) translate(0,-140)" opacity="0.9"/>
      <ellipse rx="60" ry="20" transform="rotate(315) translate(0,-140)" opacity="0.8"/>
    </g>
    
    <!-- 内层花瓣 (8瓣) -->
    <g opacity="0.9">
      <ellipse rx="45" ry="15" transform="rotate(22.5) translate(0,-110)" fill="url(#lotusGradient)"/>
      <ellipse rx="45" ry="15" transform="rotate(67.5) translate(0,-110)" fill="url(#lotusGradient)"/>
      <ellipse rx="45" ry="15" transform="rotate(112.5) translate(0,-110)" fill="url(#lotusGradient)"/>
      <ellipse rx="45" ry="15" transform="rotate(157.5) translate(0,-110)" fill="url(#lotusGradient)"/>
      <ellipse rx="45" ry="15" transform="rotate(202.5) translate(0,-110)" fill="url(#lotusGradient)"/>
      <ellipse rx="45" ry="15" transform="rotate(247.5) translate(0,-110)" fill="url(#lotusGradient)"/>
      <ellipse rx="45" ry="15" transform="rotate(292.5) translate(0,-110)" fill="url(#lotusGradient)"/>
      <ellipse rx="45" ry="15" transform="rotate(337.5) translate(0,-110)" fill="url(#lotusGradient)"/>
    </g>
  </g>
  
  <!-- 中心莲蓬 -->
  <circle cx="256" cy="256" r="80" fill="url(#centerGradient)" filter="url(#innerShadow)"/>
  
  <!-- 莲蓬纹理 -->
  <g transform="translate(256,256)" fill="#D4AF37" opacity="0.6">
    <circle r="3" transform="translate(0,-25)"/>
    <circle r="3" transform="translate(20,-15)"/>
    <circle r="3" transform="translate(20,15)"/>
    <circle r="3" transform="translate(0,25)"/>
    <circle r="3" transform="translate(-20,15)"/>
    <circle r="3" transform="translate(-20,-15)"/>
    <circle r="3" transform="translate(15,-20)"/>
    <circle r="3" transform="translate(15,20)"/>
    <circle r="3" transform="translate(-15,20)"/>
    <circle r="3" transform="translate(-15,-20)"/>
  </g>
  
  <!-- 中心发光点 -->
  <circle cx="256" cy="256" r="12" fill="#FFD700" opacity="0.8"/>
  <circle cx="256" cy="256" r="6" fill="#FFFFFF" opacity="0.9"/>
  
  <!-- 神圣光芒 (8道) -->
  <g transform="translate(256,256)" stroke="url(#lotusGradient)" stroke-width="3" opacity="0.4">
    <line x1="0" y1="-200" x2="0" y2="-160" transform="rotate(0)"/>
    <line x1="0" y1="-200" x2="0" y2="-160" transform="rotate(45)"/>
    <line x1="0" y1="-200" x2="0" y2="-160" transform="rotate(90)"/>
    <line x1="0" y1="-200" x2="0" y2="-160" transform="rotate(135)"/>
    <line x1="0" y1="-200" x2="0" y2="-160" transform="rotate(180)"/>
    <line x1="0" y1="-200" x2="0" y2="-160" transform="rotate(225)"/>
    <line x1="0" y1="-200" x2="0" y2="-160" transform="rotate(270)"/>
    <line x1="0" y1="-200" x2="0" y2="-160" transform="rotate(315)"/>
  </g>
  
  <!-- 微妙装饰线条 -->
  <circle cx="256" cy="256" r="200" fill="none" stroke="url(#lotusGradient)" stroke-width="2" opacity="0.2"/>
  <circle cx="256" cy="256" r="120" fill="none" stroke="url(#centerGradient)" stroke-width="1" opacity="0.3"/>
  
</svg>